<?xml version="1.0" encoding="UTF-8"?><svg id="Layer_1" xmlns="http://www.w3.org/2000/svg" viewBox="0 0 360 360"><defs><style>.cls-1{stroke:#231f20;stroke-miterlimit:10;}.cls-2,.cls-3{fill:#fff;}.cls-3,.cls-4{opacity:.89;}.cls-4{fill:#ef5f89;}</style></defs><rect class="cls-1" x="-.29" y="-.29" width="360.57" height="360.57"/><g><rect class="cls-2" x="83.47" y="158.89" width="45" height="45" transform="translate(-96.83 126.57) rotate(-44.58)"/><rect class="cls-3" x="157.26" y="84.55" width="45" height="45" transform="translate(231.17 309.86) rotate(-135)"/><rect class="cls-3" x="156.41" y="232.92" width="45" height="45" transform="translate(-127.8 199.06) rotate(-44.58)"/><rect class="cls-3" x="231.53" y="160.19" width="45" height="45" transform="translate(-55.14 230.87) rotate(-44.58)"/><rect x="164.87" y="146.36" width="29.46" height="29.46" transform="translate(-61.4 172.41) rotate(-44.58)"/><rect x="164.57" y="188.03" width="29.46" height="29.46" transform="translate(-90.73 184.19) rotate(-44.58)"/><rect class="cls-4" x="185.55" y="167.35" width="29.46" height="29.46" transform="translate(-70.18 192.97) rotate(-44.58)"/><rect class="cls-4" x="143.89" y="167.05" width="29.46" height="29.46" transform="translate(-81.95 163.63) rotate(-44.58)"/></g></svg>